<svg version="1.2" xmlns="http://www.w3.org/2000/svg" viewBox="0 0 2100 2100" width="2100" height="2100">
	<title>logo-svg</title>
	<style>
		.s0 { fill: #ea0029 } 
	</style>
	<g id="Layer">
		<path id="Layer" fill-rule="evenodd" class="s0" d="m281.8 1241.6c-105.9 0-191.8-85.9-191.8-191.8 0-105.9 85.9-191.8 191.8-191.8 105.9 0 191.8 85.9 191.8 191.8 0 105.9-85.9 191.8-191.8 191.8zm42.3-273.5h-58.9c-3.7 0-6.7 3-6.7 6.7q0 1.8 0.9 3.3l62.8 109.9c0.9 2.6 3.4 4.4 6.3 4.4 2.4 0 4.5-1.2 5.7-3.1l0.2-0.3 29.7-51.1q0.9-1.5 0.9-3.3 0-1.8-0.9-3.3l-33.9-59.4c-1.1-2.2-3.3-3.7-6.1-3.8zm-95.7 0.1h-59c-3.7 0-6.7 3-6.7 6.7 0 1.2 0.3 2.4 0.9 3.4l111.3 193.5v0.1l0.2 0.3c1.2 1.9 3.3 3.2 5.7 3.2 2.4 0 4.5-1.3 5.7-3.2l29.7-51.2c0.6-1 0.9-2.2 0.9-3.4q0-1.8-0.9-3.3l-82.1-142.8c-1.2-1.9-3.3-3.3-5.7-3.3zm164.5 0.1h-31.2c-3.7 0-6.7 3-6.7 6.7q0 1.8 0.9 3.3l15 27.1c1 2.3 3.4 4 6.1 4 2.4 0 4.4-1.2 5.6-3 0.2-0.3 16-28 16-28 0.1-0.2 0.3-0.6 0.3-0.6 0.5-0.8 0.7-1.8 0.7-2.9 0-3.7-3-6.7-6.7-6.6z"/>
		<path id="Layer" class="s0" d="m651.1 1175.2l-76.2-207.7h58.4l40 135 0.5 3h8l0.4-3 39.1-135h57.4l-77.7 207.7z"/>
		<path id="Layer" class="s0" d="m824.2 1175.2v-145.4l5-22.8h-31.1l23.1-39.5h53.5v207.7z"/>
		<path id="Layer" fill-rule="evenodd" class="s0" d="m1050.2 1173.4c-13.8 3.9-29.2 5.4-45 5.4-13.9 0-26.7-1-38.6-4-11.4-2.5-20.8-6-28.7-11.9-7.4-5-13.3-12.4-17.3-20.8-3.9-8.5-5.9-19.3-5.9-32.2 0-12.4 3-23.3 7.9-30.7 5-8.4 11.9-15.3 20.3-19.8 8.4-5 17.8-8.4 28.7-10.9 10.8-2.5 21.7-3.5 33.1-3.5h8.9c3.5 0 8 0.5 12.9 0.5l6.9 1v-7.4c-0.5-17.3-8.9-24.7-15.8-27.7-8.5-3.4-19.3-5.4-32.2-5.4-6.9 0-14.8 0.5-23.7 2.5-6.6 1-13.2 2.8-20.2 4.7l-10.7-36.9c11.8-3.9 22.1-5.8 32.9-8.3 12.3-2.5 23.2-3 33.1-3 28.2 0 49.5 6.9 64.3 19.8 14.9 12.8 21.8 34.1 21.8 62.8v118.2c-11.3 3-20.2 5-32.7 7.6zm-18.7-93.5l-4.9-1c-3.5-0.5-5.9-1-9.4-1-3.5-0.5-5.9-0.5-8.4-0.5-12.9 0-23.8 2.4-32.2 5.9-9.4 4.9-14.8 13.3-14.8 25.2 0 7.4 1.4 13.3 5.4 17.8 3.5 4 7.9 7.4 12.9 8.9 4.4 1.5 9.4 3 14.8 3.5 4.5 0.5 8.4 0.5 11.9 0.5 5.9 0 12.4-0.5 19.8-2.5l4.9-1z"/>
		<path id="Layer" class="s0" d="m1235.3 923h-6.5c-10.9 0-20.8 2.4-26.7 6.9-7.5 4.9-12.9 13.3-12.9 24.2v13.3h52.7l-22.7 39.1h-29.9v19.8 148.9h-51v-168.2h-28.2v-39.5h28.2v-13.4c0-12.4 3.4-19.3 7.4-28.2 4.4-10.9 16.8-21.3 16.8-21.3 13.9-13.9 33.7-20.8 57.9-20.8 7.4 0 13.9 0.5 20.3 1.5 4.2 0.5 8.9 2.3 14.3 3.7l-19.7 33.9z"/>
		<path id="Layer" fill-rule="evenodd" class="s0" d="m1344.1 1177.7c-13.9 0-27.7-1.5-39.1-5.4-11.4-4-21.3-9.4-29.7-17.8-8.4-8.4-15.3-19.3-19.8-32.7-4.9-13.4-7.4-30.2-7.4-49.5 0-19.3 2.5-35.1 7.4-49 5-13.4 11.9-24.2 20.3-32.7 8.4-8.4 18.3-14.8 29.7-18.3 11.9-4 24.7-5.9 38.6-5.9 13.9 0 26.7 1.5 38.6 5.4 11.9 4 21.8 9.4 29.7 17.8 8.4 8.4 15.3 19.3 19.8 32.7 4.9 13.4 7.4 30.2 7.4 49.5 0 19.8-2.5 36.1-7.4 49.5-4.9 13.4-11.9 24.2-19.8 32.7-8.4 8.4-18.3 13.9-29.7 17.8-11.8 3.9-25.2 5.9-38.6 5.9zm0-170.7c-14.8 0-26.2 4.9-35.1 15.8-8.4 9.9-12.9 26.2-12.9 49 0 23.7 4 39.1 12.9 49.5 8.4 9.9 20.8 15.3 35.1 15.3 14.8 0 26.2-4.9 35.1-15.3 8.4-9.9 12.4-25.7 12.4-49.5 0-23.8-4-39.1-12.4-49.5-8.8-10.3-20.7-15.3-35.1-15.3z"/>
		<path id="Layer" class="s0" d="m1574.7 1177.7c-13.9 0-27.7-1-40.1-3.5-11.9-2.5-22.3-6.9-31.7-12.9-8.9-6.9-17.8-16.3-23.3-29.2-5.4-12.9-9.9-30.7-9.9-53.9v-110.7h50.5v108.8c0 10.9 3 19.3 4.5 26.2 1.5 7.9 5.9 13.9 9.9 18.3 4 4.5 9.9 7.9 16.3 9.9 5.4 1.5 12.4 3 19.8 3 8.4 0 16.3-0.5 23.3-1l5.4-1-0.5-12.4v-151.8h50.5v197.9c-11.4 3-19.8 5.4-31.7 7.9-13.8 2.4-28.7 4.4-43 4.4z"/>
		<path id="Layer" class="s0" d="m1823.6 1008.5h-6.9-0.5c-5.4 0.5-11.9 1.5-17.3 3-6.9 1.5-12.9 3.9-18.3 7.9-6.9 5-11.8 11.4-14.8 19.8-3 7.4-4 17.3-4 30.2v105.9h-50.5v-168.2h-29.2l1.3-2.5 21.3-36.6h57.5v24.3c0 0 19.7-20.3 33.6-23.3 5.4-1 11.4-3 17.8-3 5.9 0 11.3 0 15.3 0.5h0.5v42z"/>
		<path id="Layer" fill-rule="evenodd" class="s0" d="m1977.3 1173.4c-13.8 3.9-29.2 5.4-45 5.4-13.9 0-26.7-1-38.6-4-11.4-2.5-20.8-6-28.7-11.9-7.4-5-13.3-12.4-17.3-20.8-3.9-8.5-5.9-19.3-5.9-32.2 0-12.4 3-23.3 7.9-30.7 5-8.4 11.9-15.3 20.3-19.8 8.4-5 17.8-8.4 28.7-10.9 10.8-2.5 21.7-3.5 33.1-3.5h8.9c3.5 0 8 0.5 12.9 0.5l6.9 1v-7.4c-0.5-17.3-8.9-24.7-15.8-27.7-8.5-3.4-19.3-5.4-32.2-5.4-6.9 0-14.8 0.5-23.7 2.5-6.6 1-13.2 2.8-20.2 4.7l-10.7-36.9c11.8-3.9 22.1-5.8 32.9-8.3 12.3-2.5 23.2-3 33.1-3 28.2 0 49.5 6.9 64.3 19.8 14.9 12.8 21.8 34.1 21.8 62.8v118.2c-11.4 3-20.3 5-32.7 7.6zm-18.7-93.5l-4.9-1c-3.5-0.5-5.9-1-9.4-1-3.5-0.5-5.9-0.5-8.4-0.5-12.9 0-23.8 2.4-32.2 5.9-9.4 4.9-14.8 13.3-14.8 25.2 0 7.4 1.4 13.3 5.4 17.8 3.5 4 7.9 7.4 12.9 8.9 4.4 1.5 9.4 3 14.8 3.5 4.5 0.5 8.4 0.5 11.9 0.5 5.9 0 12.4-0.5 19.8-2.5l4.9-1z"/>
	</g>
</svg>